<?xml version="1.0" encoding="UTF-8" standalone="no"?>
<!DOCTYPE svg PUBLIC "-//W3C//DTD SVG 1.1//EN" "http://www.w3.org/Graphics/SVG/1.1/DTD/svg11.dtd">
<svg width="100%" height="100%" viewBox="0 0 754 200" version="1.1" xmlns="http://www.w3.org/2000/svg" xmlns:xlink="http://www.w3.org/1999/xlink" xml:space="preserve" xmlns:serif="http://www.serif.com/" style="fill-rule:evenodd;clip-rule:evenodd;stroke-linejoin:round;stroke-miterlimit:2;">
    <path d="M753.5,46.1L753.5,153.9C753.5,179.067 733.067,199.5 707.9,199.5L46.1,199.5C20.933,199.5 0.5,179.067 0.5,153.9L0.5,46.1C0.5,20.933 20.933,0.5 46.1,0.5L707.9,0.5C733.067,0.5 753.5,20.933 753.5,46.1Z" style="fill:rgb(22,25,29);"/>
    <path d="M753.5,46.1L753.5,153.9C753.5,179.067 733.067,199.5 707.9,199.5L46.1,199.5C20.933,199.5 0.5,179.067 0.5,153.9L0.5,46.1C0.5,20.933 20.933,0.5 46.1,0.5L707.9,0.5C733.067,0.5 753.5,20.933 753.5,46.1ZM747.5,46.1C747.5,24.244 729.756,6.5 707.9,6.5L46.1,6.5C24.244,6.5 6.5,24.244 6.5,46.1L6.5,153.9C6.5,175.756 24.244,193.5 46.1,193.5L707.9,193.5C729.756,193.5 747.5,175.756 747.5,153.9L747.5,46.1Z" style="fill:rgb(36,39,43);"/>
    <g transform="matrix(0.586516,0,0,0.586516,144.965,41.6409)">
        <g id="Fish-Icon" transform="matrix(0.227982,0,0,0.227982,151.505,-15.8195)">
            <g transform="matrix(1.46903,0,0,1.46903,-268.185,-256.529)">
                <path d="M601.41,572.44C592.92,568.44 581.43,560.45 575.44,554.46C565.95,543.97 564.95,543.97 559.96,552.96C555.46,560.95 554.96,559.95 554.47,546.47C554.47,530.99 566.96,514.5 578.45,514.5C581.95,514.5 584.44,517.5 584.44,521.49C584.44,525.49 593.43,539.97 604.42,553.96C625.9,580.93 625.9,582.93 601.42,572.44L601.41,572.44Z" style="fill:rgb(0,51,75);fill-rule:nonzero;"/>
            </g>
            <g>
                <g transform="matrix(1.46903,0,0,1.46903,-264.185,-254.529)">
                    <path d="M484.53,735.78C484.53,714.8 496.52,698.82 508.51,702.81C525.49,708.8 534.48,720.79 534.48,737.78L534.48,754.26L484.52,754.26L484.52,735.78L484.53,735.78Z" style="fill:rgb(0,67,92);fill-rule:nonzero;"/>
                </g>
                <g transform="matrix(1.46903,0,0,1.46903,-264.185,-254.529)">
                    <path d="M353.16,535.48C334.18,516 330.277,510.106 333.68,506.021C336.241,502.949 361.674,450.425 365.674,452.925C367.674,454.425 390.63,448.58 413.11,470.56C425.1,482.05 440.554,490.907 440.554,492.407C440.554,493.907 424.6,508.03 412.61,520.51C397.13,536.99 392.63,545.49 396.13,548.98C400.13,552.98 397.13,554.47 386.64,554.47C376.15,554.47 366.66,548.98 353.17,535.49L353.16,535.48Z" style="fill:rgb(0,67,92);fill-rule:nonzero;"/>
                </g>
                <g transform="matrix(1.46903,0,0,1.46903,166.738,-349.402)">
                    <path d="M353.16,535.48C334.18,516 330.277,510.106 333.68,506.021C336.241,502.949 361.674,450.425 365.674,452.925C367.674,454.425 390.63,448.58 413.11,470.56C425.1,482.05 440.554,490.907 440.554,492.407C440.554,493.907 424.6,508.03 412.61,520.51C397.13,536.99 392.63,545.49 396.13,548.98C400.13,552.98 397.13,554.47 386.64,554.47C376.15,554.47 366.66,548.98 353.17,535.49L353.16,535.48Z" style="fill:rgb(0,67,92);fill-rule:nonzero;"/>
                </g>
                <g transform="matrix(1.46903,0,0,1.46903,-264.185,-254.529)">
                    <path d="M540.47,458.55C541.97,451.06 518.49,424.58 510.5,424.58C507.5,424.58 504.01,427.58 503.01,431.07C501.51,434.07 500.01,430.07 500.01,421.58C499.51,399.6 544.47,354.65 567.44,354.65C593.41,354.65 600.91,368.14 596.91,406.6C594.91,424.58 589.92,442.07 586.42,445.06C580.93,449.56 579.43,448.06 579.43,437.07C579.43,425.58 578.43,424.08 571.94,429.58C567.94,433.08 564.45,442.07 564.45,450.06C564.45,462.05 562.45,464.55 551.96,464.55C543.97,464.55 539.47,462.05 540.47,458.56L540.47,458.55Z" style="fill:rgb(0,67,92);fill-rule:nonzero;"/>
                </g>
            </g>
            <g>
                <g transform="matrix(1.46903,0,0,1.46903,-264.185,-254.529)">
                    <path d="M606.91,849.17C578.94,847.17 568.45,844.17 554.46,833.19C544.97,826.2 530.98,818.7 523.49,816.71C516,814.71 508.01,810.72 505.51,807.72C497.02,796.23 484.53,756.27 484.53,740.29C484.53,724.81 491.52,718.31 495.52,730.3C496.52,733.3 503.01,736.79 509.51,737.79C521,739.29 521,739.29 511.51,728.8L502.02,717.81L522,721.31C537.98,724.31 550.97,733.8 587.44,768.26C636.89,815.71 645.88,827.7 643.39,842.19C641.89,850.68 638.39,851.68 606.93,849.18L606.91,849.17Z" style="fill:rgb(7,96,122);fill-rule:nonzero;"/>
                </g>
                <g transform="matrix(1.46903,0,0,1.46903,-264.185,-254.529)">
                    <path d="M337.17,309.7C316.69,288.72 313.19,283.23 317.69,275.73C322.69,268.24 333.67,267.24 401.61,265.74C467.05,264.74 479.53,265.74 479.53,271.73C479.53,275.73 472.54,280.22 463.55,282.22C443.57,286.72 402.61,307.2 381.63,322.68C373.14,329.17 365.15,334.67 364.15,334.67C362.65,334.67 350.66,323.18 337.18,309.69L337.17,309.7Z" style="fill:rgb(7,96,122);fill-rule:nonzero;"/>
                </g>
            </g>
            <g>
                <g transform="matrix(1.46903,0,0,1.46903,-264.185,-254.529)">
                    <path d="M484.53,765.25C484.53,720.79 491.52,698.81 503.51,706.31C513.5,712.3 510.5,723.79 499.51,720.8C490.02,718.3 490.02,718.8 497.01,736.28C501.01,745.77 504.5,766.25 504.5,781.74C504.5,805.72 503.5,809.21 494.51,809.21C485.52,809.21 484.52,805.71 484.52,765.25L484.53,765.25Z" style="fill:rgb(9,103,127);fill-rule:nonzero;"/>
                </g>
                <g transform="matrix(1.46903,0,0,1.46903,-264.185,-254.529)">
                    <path d="M455.06,622.89C440.57,607.41 439.08,603.91 442.57,586.43C446.57,563.95 452.55,547.867 462.54,539.377C468.03,534.877 478.04,535.48 499.52,556.96L517.679,593.154L499.02,611.9L471.55,639.37L455.07,622.89L455.06,622.89Z" style="fill:rgb(9,103,127);fill-rule:nonzero;"/>
                </g>
                <g transform="matrix(1.46903,0,0,1.46903,-264.185,-254.529)">
                    <path d="M426.08,601.91C426.08,588.42 427.08,582.93 428.08,590.92C429.08,598.41 429.08,609.4 428.08,615.9C427.08,621.89 426.08,615.9 426.08,601.91Z" style="fill:rgb(9,103,127);fill-rule:nonzero;"/>
                </g>
                <g transform="matrix(1.46903,0,0,1.46903,-264.185,-254.529)">
                    <path d="M545.47,542.97C518.5,514 518,483.53 544.47,455.06L564.45,433.58L564.45,453.06C564.95,463.55 568.45,481.03 572.44,492.02C586.43,528.48 586.43,532.48 570.44,543.47L555.95,553.96L545.46,542.97L545.47,542.97Z" style="fill:rgb(9,103,127);fill-rule:nonzero;"/>
                </g>
            </g>
            <g>
                <g transform="matrix(1.46903,0,0,1.46903,-264.185,-254.529)">
                    <path d="M416.09,702.31C365.64,683.83 329.17,647.86 314.69,602.91C308.2,582.93 313.19,550.46 326.68,516.99C335.17,497.01 342.16,495.51 357.15,509.5C366.64,517.99 367.64,523.99 365.64,544.47C362.14,584.43 379.63,624.89 418.59,663.35C438.57,683.33 449.56,698.32 448.56,704.31C447.06,712.8 445.56,712.8 416.09,702.31Z" style="fill:rgb(214,48,6);fill-rule:nonzero;"/>
                </g>
                <g transform="matrix(1.46903,0,0,1.46903,-264.185,-254.529)">
                    <path d="M625.89,565.95C599.42,537.98 582.93,498.52 580.43,458.55C578.43,426.58 578.93,424.58 588.92,424.58C594.41,424.58 599.41,426.58 599.41,429.58C599.41,439.07 657.35,494.52 675.84,502.01C685.83,506.01 706.31,509.5 721.8,509.5C736.79,509.5 749.27,511 749.27,513.5C749.27,519.99 698.32,557.46 670.35,571.44L643.38,584.93L625.9,565.95L625.89,565.95Z" style="fill:rgb(214,48,6);fill-rule:nonzero;"/>
                </g>
            </g>
            <g>
                <g transform="matrix(1.46903,0,0,1.46903,-264.185,-254.529)">
                    <path d="M499.51,809.71C487.02,806.71 487.02,806.21 489.52,766.75C492.02,728.29 492.52,727.29 499.01,741.77C505.5,756.26 524.49,809.2 524.49,812.7C524.49,814.7 515,813.7 499.51,809.7L499.51,809.71Z" style="fill:rgb(18,129,154);fill-rule:nonzero;"/>
                </g>
                <g transform="matrix(1.46903,0,0,1.46903,-264.185,-254.529)">
                    <path d="M499.51,720.8C487.52,714.81 487.52,714.31 498.01,714.31C504,714.31 510.5,716.81 512,719.8C517.49,727.79 513,728.29 499.51,720.8Z" style="fill:rgb(18,129,154);fill-rule:nonzero;"/>
                </g>
                <g transform="matrix(1.46903,0,0,1.46903,-264.185,-254.529)">
                    <path d="M292.21,544.47C287.21,522.99 288.698,470.275 294.198,461.775C296.198,458.275 297.21,450.06 297.21,447.06C297.21,444.56 301.71,441.57 306.7,440.57C315.19,438.57 315.69,441.07 313.19,464.05C311.69,478.04 312.19,490.52 314.69,492.02C317.19,493.52 316.19,501.51 312.19,511C308.69,519.99 303.7,534.98 301.2,544.47L296.2,561.95L292.2,544.47L292.21,544.47Z" style="fill:rgb(18,129,154);fill-rule:nonzero;"/>
                </g>
            </g>
            <g>
                <g transform="matrix(1.46903,0,0,1.46903,-264.185,-254.529)">
                    <path d="M656.86,514.5C645.37,509.01 627.89,495.52 617.4,484.53L598.42,464.55L616.9,464.55C626.39,464.55 644.37,469.55 655.86,475.54C678.34,487.03 701.32,488.53 754.26,482.03L786.73,478.53L764.25,501.51C742.27,523.99 741.77,524.49 709.3,524.49C686.82,524.49 670.84,521.49 656.85,514.5L656.86,514.5Z" style="fill:rgb(237,77,0);fill-rule:nonzero;"/>
                </g>
                <g transform="matrix(1.46903,0,0,1.46903,-264.185,-254.529)">
                    <path d="M436.07,437.07L407.1,410.1L438.07,378.63C455.05,361.65 470.04,348.66 470.54,350.16C471.54,351.16 484.03,365.15 499.01,380.63L526.48,409.1L499.01,436.57C484.02,452.05 470.54,464.54 468.54,464.54C466.54,464.54 452.06,452.05 436.07,437.07Z" style="fill:rgb(237,77,0);fill-rule:nonzero;"/>
                </g>
            </g>
            <g>
                <g transform="matrix(1.46903,0,0,1.46903,-264.185,-254.529)">
                    <path d="M401.61,676.34C363.65,638.38 348.16,600.41 348.66,550.96C349.16,532.48 349.56,508.511 352.06,506.021C354.06,504.021 374.14,526.49 394.62,546.97L431.58,583.93L412.6,639.87L424.09,661.35C430.08,673.34 434.58,688.32 433.58,694.82C432.08,705.81 429.58,704.31 401.61,676.34Z" style="fill:rgb(248,94,1);fill-rule:nonzero;"/>
                </g>
                <g transform="matrix(1.46903,0,0,1.46903,-266.185,-254.529)">
                    <path d="M302.7,485.03C296.71,478.04 295.21,470.54 297.21,454.06C300.21,428.58 318.19,389.62 326.18,389.62C332.17,390.12 354.65,411.6 361.65,423.09C363.65,426.59 356.65,441.07 344.67,456.56C333.68,471.55 319.385,486.003 319.385,489.003C319.385,496.993 312.2,495.52 302.71,485.03L302.7,485.03Z" style="fill:rgb(248,94,1);fill-rule:nonzero;"/>
                </g>
                <g transform="matrix(1.46903,0,0,1.46903,-264.185,-254.529)">
                    <path d="M613.4,477.03C591.92,465.04 578.43,438.57 579.93,410.1C580.93,395.11 578.93,382.13 574.44,377.13C568.95,370.64 569.44,365.64 579.44,344.66C585.93,331.17 596.92,314.19 604.42,307.2L615.499,298.401L637.963,308.612C649.953,314.102 658.244,318.13 667.234,325.63C680.224,337.12 694.33,344.16 694.33,360.15C694.33,376.63 692.83,379.63 683.84,379.63C669.35,379.63 642.38,396.61 632.39,412.1C623.4,425.59 621.9,447.57 629.39,452.06C635.38,455.56 636.38,484.53 630.89,484.53C628.39,484.03 620.9,481.03 613.41,477.04L613.4,477.03Z" style="fill:rgb(248,94,1);fill-rule:nonzero;"/>
                </g>
                <g transform="matrix(1.46903,0,0,1.46903,-263.185,-254.529)">
                    <path d="M479.53,391.62L453.06,363.65L475.04,341.67L496.52,319.69L526.99,349.66L556.96,379.63L536.98,399.61C525.99,410.1 514.5,419.09 511.5,419.59C508.5,419.59 494.02,407.1 479.53,391.62Z" style="fill:rgb(248,94,1);fill-rule:nonzero;"/>
                </g>
            </g>
            <g>
                <g transform="matrix(1.46903,0,0,1.46903,-264.185,-254.529)">
                    <path d="M526.99,741.78C513.5,729.29 499.02,719.3 495.52,719.3C491.52,719.3 489.53,716.3 490.52,713.31C492.52,708.31 515,706.32 576.94,705.32C658.86,704.32 660.86,704.32 652.87,713.31C647.87,718.8 644.38,730.79 644.38,743.28L644.38,763.76L551.97,763.76L526.99,741.78Z" style="fill:rgb(26,150,176);fill-rule:nonzero;"/>
                </g>
                <g transform="matrix(1.59958,0,0,2.08443,-306.479,-568.99)">
                    <path d="M299.71,508C295.21,504 292.72,495.51 293.72,484.52C301.628,459.513 298.72,451.55 312.2,464.54C342.263,487.338 331.635,478.702 318.507,500.291C305.479,521.715 314.756,520.441 299.72,508L299.71,508Z" style="fill:rgb(26,150,176);fill-rule:nonzero;"/>
                </g>
                <g transform="matrix(1.46903,0,0,1.46903,-264.185,-254.529)">
                    <path d="M392.62,481.03L363.155,454.287L392.62,424.09L421.697,395.064L453.06,423.59L480.92,454.287L460.55,474.54C421.09,512 425.58,512 392.62,481.03Z" style="fill:rgb(26,150,176);fill-rule:nonzero;"/>
                </g>
                <g transform="matrix(1.46903,0,0,1.46903,-264.185,-254.529)">
                    <path d="M337.17,254.75L363.155,228.967L424.59,229.77L487.53,229.77L503.51,246.25C533.98,277.72 527.99,279.72 404.61,279.72L318.908,273.895L337.18,254.74L337.17,254.75Z" style="fill:rgb(26,150,176);fill-rule:nonzero;"/>
                </g>
            </g>
            <g>
                <g transform="matrix(1.46903,0,0,1.46903,-264.185,-254.529)">
                    <path d="M458.05,714.3C437.57,710.3 417.59,694.82 406.1,672.34C396.61,653.86 399.61,605.41 411.1,587.42C422.59,569.94 431.908,583.624 431.908,583.624C431.908,583.624 418.77,629.232 463.55,693.32C473.04,705.31 480.03,715.3 479.03,716.3C478.03,716.8 468.54,715.8 458.05,714.3Z" style="fill:rgb(255,133,33);fill-rule:nonzero;"/>
                </g>
                <g transform="matrix(1.46903,0,0,1.46903,-264.185,-254.529)">
                    <path d="M664.35,500.01C627.39,488.52 604.41,463.55 604.41,434.57C604.41,405.1 641.37,364.64 667.85,364.64C680.34,364.64 682.34,359.64 673.34,350.65C668.84,346.15 670.84,344.66 682.33,344.66C694.32,344.66 706.31,353.65 748.27,396.11C776.24,424.08 799.498,451.158 799.498,455.648C799.498,472.128 775.74,492.51 749.27,498.51C720.8,505 683.33,505.5 664.35,500.01ZM693.32,458.55C696.82,455.05 699.31,446.56 699.31,439.57C699.31,424.09 690.82,414.59 676.83,414.59C663.34,414.59 654.35,423.58 654.35,437.57C654.35,459.05 679.33,472.54 693.31,458.55L693.32,458.55Z" style="fill:rgb(255,133,33);fill-rule:nonzero;"/>
                </g>
                <g transform="matrix(1.46903,0,0,1.46903,-264.185,-254.529)">
                    <path d="M334.67,423.59C316.69,402.61 315.69,397.12 327.68,384.63C333.67,378.64 336.67,379.63 350.16,392.12C373.64,415.1 376.13,421.59 363.15,433.58L352.16,444.07L334.68,423.59L334.67,423.59Z" style="fill:rgb(255,133,33);fill-rule:nonzero;"/>
                </g>
                <g transform="matrix(1.46903,0,0,1.46903,-264.185,-254.529)">
                    <path d="M512,364.64L482.53,334.67L521.49,294.71L550.46,323.18C572.94,345.16 579.43,355.15 579.43,366.64C579.43,378.13 577.93,380.13 573.44,375.63C568.94,371.13 566.47,371.959 556.48,381.449L542.866,394.383L512,364.64Z" style="fill:rgb(255,133,33);fill-rule:nonzero;"/>
                </g>
            </g>
            <g>
                <g transform="matrix(1.46903,0,0,1.46903,-264.185,-254.529)">
                    <path d="M587.93,799.22L536.98,749.77L564.45,748.27C579.44,747.77 603.91,747.27 617.9,746.77L644.37,746.77L644.37,798.22C644.37,826.19 643.37,849.17 641.87,849.17C640.37,849.17 616.39,826.69 587.92,799.22L587.93,799.22Z" style="fill:rgb(138,204,206);fill-rule:nonzero;"/>
                </g>
                <g transform="matrix(1.46903,0,0,1.46903,-264.185,-254.529)">
                    <path d="M489.52,714.8C489.52,711.8 501.51,699.32 515.99,686.33L542.96,662.85L619.88,663.85C661.84,664.35 697.8,666.35 698.8,667.35C700.3,668.85 689.31,680.84 674.32,694.32L646.85,719.3L568.43,719.3C522.47,719.3 489.51,717.3 489.51,714.8L489.52,714.8Z" style="fill:rgb(138,204,206);fill-rule:nonzero;"/>
                </g>
                <g transform="matrix(1.46903,0,0,1.46903,-264.185,-254.529)">
                    <path d="M485.03,572.44L458.456,543.461L475.04,525.99C484.53,515.5 503.51,496.52 517,483.53L541.98,460.55L541.48,476.03C541.48,498.51 547.97,516.49 561.96,529.48C572.95,539.97 572.95,540.97 564.96,548.46C559.96,553.46 545.98,566.44 533.99,577.93L511.51,599.41L485.04,572.44L485.03,572.44Z" style="fill:rgb(138,204,206);fill-rule:nonzero;"/>
                </g>
                <g transform="matrix(1.46903,0,0,1.46903,-264.185,-254.529)">
                    <path d="M478.03,251.25C475.03,246.75 456.05,244.76 410.6,244.76L344.775,247.347L377.13,214.79C402.61,189.31 409.6,184.82 424.58,184.82C449.06,184.82 486.02,221.28 483.52,242.76C482.52,252.25 480.52,255.25 478.03,251.25Z" style="fill:rgb(138,204,206);fill-rule:nonzero;"/>
                </g>
            </g>
            <g>
                <g transform="matrix(1.46903,0,0,1.46903,-264.185,-254.529)">
                    <path d="M528.49,678.34L566.45,639.38L731.29,639.38L710.31,659.36L689.33,679.84L608.91,678.84L528.49,678.34Z" style="fill:rgb(255,245,214);fill-rule:nonzero;"/>
                </g>
                <g transform="matrix(1.46903,0,0,1.46903,-265.185,-254.529)">
                    <path d="M711.8,389.12L632.88,309.2L620.39,320.69C613.9,327.18 602.41,344.17 594.91,358.65L581.92,384.62L544.46,347.16L507.5,309.7L520.99,295.71C538.47,277.73 537.97,274.73 517.99,274.73C504.5,274.73 495.51,268.24 460.55,233.27C438.07,210.79 419.59,190.31 419.59,188.31C419.59,186.31 432.58,184.81 448.06,184.81L477.03,184.81L524.98,232.76C569.44,277.22 575.43,281.21 612.39,294.2C634.37,301.69 667.84,318.18 686.82,330.66C752.76,373.62 817.755,454.23 796.775,467.22C794.275,468.72 755.25,433.06 711.79,389.11L711.8,389.12Z" style="fill:rgb(255,245,214);fill-rule:nonzero;"/>
                </g>
                <g transform="matrix(1.46903,0,0,1.46903,-264.185,-254.529)">
                    <path d="M398.11,370.64L384.12,356.15L411.09,331.17C433.07,310.19 442.56,304.7 461.54,302.2C474.53,300.2 485.52,299.2 486.52,300.2C487.52,301.2 471.04,320.68 450.06,343.66L411.6,385.12L398.11,370.63L398.11,370.64Z" style="fill:rgb(255,245,214);fill-rule:nonzero;"/>
                </g>
            </g>
        </g>
        <g transform="matrix(1.70498,0,0,1.70498,-393.792,-246.61)">
            <g transform="matrix(72,0,0,72,593.771,228.754)">
            </g>
            <text x="464.256px" y="228.754px" style="font-family:'Arial-Black', 'Arial Black', sans-serif;font-weight:900;font-size:72px;fill:white;">K<tspan x="521.771px 569.795px " y="228.754px 228.754px ">oi</tspan></text>
        </g>
    </g>
</svg>
